<svg width="30" height="30" viewBox="0 0 30 30" fill="none" xmlns="http://www.w3.org/2000/svg">
<circle cx="15" cy="15" r="15" fill="#479458"/>
<rect width="16" height="16" transform="translate(7 7)" fill="#479458"/>
<path fill-rule="evenodd" clip-rule="evenodd" d="M20.6218 11.2342C20.7718 11.3843 20.856 11.5877 20.856 11.7998C20.856 12.012 20.7718 12.2154 20.6218 12.3654L14.2218 18.7654C14.0718 18.9154 13.8683 18.9997 13.6562 18.9997C13.4441 18.9997 13.2406 18.9154 13.0906 18.7654L9.89058 15.5654C9.74486 15.4145 9.66422 15.2125 9.66605 15.0027C9.66787 14.793 9.752 14.5923 9.90033 14.444C10.0487 14.2956 10.2493 14.2115 10.4591 14.2097C10.6688 14.2079 10.8709 14.2885 11.0218 14.4342L13.6562 17.0686L19.4906 11.2342C19.6406 11.0843 19.8441 11 20.0562 11C20.2683 11 20.4718 11.0843 20.6218 11.2342Z" fill="white"/>
</svg>
