<svg width="16" height="16" viewBox="0 0 16 16" fill="none" xmlns="http://www.w3.org/2000/svg">
<path d="M7.66634 14.5002C3.89967 14.5002 0.833008 11.4335 0.833008 7.66683C0.833008 3.90016 3.89967 0.833496 7.66634 0.833496C11.433 0.833496 14.4997 3.90016 14.4997 7.66683C14.4997 11.4335 11.433 14.5002 7.66634 14.5002ZM7.66634 1.8335C4.44634 1.8335 1.83301 4.4535 1.83301 7.66683C1.83301 10.8802 4.44634 13.5002 7.66634 13.5002C10.8863 13.5002 13.4997 10.8802 13.4997 7.66683C13.4997 4.4535 10.8863 1.8335 7.66634 1.8335Z" fill="#101112"/>
<path d="M14.667 15.1665C14.5403 15.1665 14.4136 15.1198 14.3136 15.0198L11.667 12.3331C11.8603 12.1398 12.3737 11.6265 12.3737 11.6265L15.0203 14.3131C15.2136 14.5065 15.2136 14.8265 15.0203 15.0198C14.9203 15.1198 14.7936 15.1665 14.667 15.1665Z" fill="#101112"/>
</svg>
