<svg width="35" height="35" viewBox="0 0 35 35" fill="none" xmlns="http://www.w3.org/2000/svg">
<path d="M23.9163 28.5833C22.3055 28.5833 20.9997 27.2775 20.9997 25.6667C20.9997 24.0558 22.3055 22.75 23.9163 22.75C25.5272 22.75 26.833 24.0558 26.833 25.6667C26.833 27.2775 25.5272 28.5833 23.9163 28.5833Z" stroke="#101112" stroke-width="1.16667" stroke-miterlimit="10"/>
<path d="M28.8848 22.6063C28.6934 22.2965 28.4735 22.006 28.2297 21.7383" stroke="#101112" stroke-width="1.16667" stroke-miterlimit="10"/>
<path d="M27.1613 20.8187C26.2338 20.1968 25.1178 19.834 23.9168 19.834C23.3719 19.834 22.8458 19.9087 22.3458 20.0481" stroke="#101112" stroke-width="1.16667" stroke-miterlimit="10"/>
<path d="M23.3333 25.084H24.5V26.2507H23.3333V25.084Z" fill="#101112"/>
<path d="M21.0576 25.083H18.6455" stroke="#101112" stroke-width="1.16667" stroke-miterlimit="10"/>
<path d="M30.916 28.584H17.5734" stroke="#101112" stroke-width="1.16667" stroke-miterlimit="10"/>
<path d="M32.0833 28.584H33.25" stroke="#101112" stroke-width="1.16667" stroke-miterlimit="10"/>
<path d="M3.49967 6.4165H19.7216C20.8999 6.4165 22.0164 6.945 22.7625 7.85734L26.833 12.8332L32.3403 16.0462C33.2643 16.5852 33.833 17.5745 33.833 18.6443V23.3087C33.833 24.2893 33.0391 25.0832 32.0591 25.0832H26.7747" stroke="#101112" stroke-width="1.16667" stroke-miterlimit="10"/>
<path d="M2.33301 6.4165H1.16634" stroke="#101112" stroke-width="1.16667" stroke-miterlimit="10"/>
<path d="M1.16634 9.91699H2.33301" stroke="#101112" stroke-width="1.16667" stroke-miterlimit="10"/>
<path d="M3.5 9.91699H12.25" stroke="#101112" stroke-width="1.16667" stroke-miterlimit="10"/>
<path d="M1.16634 13.4165H2.33301" stroke="#101112" stroke-width="1.16667" stroke-miterlimit="10"/>
<path d="M3.49935 13.4165H8.16602" stroke="#101112" stroke-width="1.16667" stroke-miterlimit="10"/>
<path d="M29.1663 14.1943V17.5001C29.1663 18.4667 29.9503 19.2501 30.9163 19.2501H33.833" stroke="#101112" stroke-width="1.16667" stroke-miterlimit="10"/>
<path d="M16.333 12.2505V9.33382C16.333 9.01124 16.5938 8.75049 16.9163 8.75049H19.7222C20.1999 8.75049 20.6526 8.96516 20.9553 9.33499L24.4437 13.5986C24.5755 13.759 24.4612 14.0005 24.2535 14.0005H16.333" stroke="#101112" stroke-width="1.16667" stroke-miterlimit="10"/>
<path d="M16.333 11.6665V16.3332" stroke="#101112" stroke-width="1.16667" stroke-miterlimit="10"/>
<path d="M6.99935 28.5825H13.9993C14.6433 28.5825 15.166 28.0599 15.166 27.4159L14.291 22.7492C14.291 22.1052 13.7683 21.5825 13.1243 21.5825H8.02015C7.37615 21.5825 6.85348 22.1052 6.85348 22.7492L5.83268 27.4159C5.83268 28.0599 6.35535 28.5825 6.99935 28.5825Z" stroke="#101112" stroke-width="1.16667" stroke-miterlimit="10"/>
<path d="M12.249 21.5833V19.8333C12.249 19.5108 11.9883 19.25 11.6657 19.25H9.33236C9.00977 19.25 8.74902 19.5108 8.74902 19.8333V21.5833" stroke="#101112" stroke-width="1.16667" stroke-miterlimit="10"/>
<path d="M15.0293 17.7042C14.7545 17.5205 14.4675 17.3525 14.17 17.2031" stroke="#101112" stroke-width="1.16667" stroke-miterlimit="10"/>
<path d="M12.653 16.62C11.967 16.4328 11.2448 16.333 10.4993 16.333C5.98902 16.333 2.33268 19.9893 2.33268 24.4997C2.33268 29.01 5.98902 32.6663 10.4993 32.6663C15.0097 32.6663 18.666 29.01 18.666 24.4997C18.666 22.3495 17.8353 20.3942 16.4779 18.9364" stroke="#101112" stroke-width="1.16667" stroke-miterlimit="10"/>
</svg>
